<svg xmlns="http://www.w3.org/2000/svg" viewBox="0 0 400 300" width="406" height="306" class="illustration styles_illustrationTablet__1DWOa"><g id="_72_music_outline" data-name="#72_music_outline"><rect x="115.07" y="96.57" width="169.87" height="129.55" rx="6.57" fill="#093f68"></rect><path d="M278.36,227.12H121.64a7.58,7.58,0,0,1-7.57-7.57V103.14a7.57,7.57,0,0,1,7.57-7.57H278.36a7.57,7.57,0,0,1,7.57,7.57V219.55A7.58,7.58,0,0,1,278.36,227.12ZM121.64,97.57a5.57,5.57,0,0,0-5.57,5.57V219.55a5.57,5.57,0,0,0,5.57,5.57H278.36a5.57,5.57,0,0,0,5.57-5.57V103.14a5.57,5.57,0,0,0-5.57-5.57Z" fill="#093f68"></path><rect x="115.07" y="73.88" width="169.87" height="129.55" rx="6.57" fill="#86F0D3"></rect><path d="M278.36,204.43H121.64a7.57,7.57,0,0,1-7.57-7.57V80.45a7.58,7.58,0,0,1,7.57-7.57H278.36a7.58,7.58,0,0,1,7.57,7.57V196.86A7.57,7.57,0,0,1,278.36,204.43ZM121.64,74.88a5.57,5.57,0,0,0-5.57,5.57V196.86a5.57,5.57,0,0,0,5.57,5.57H278.36a5.57,5.57,0,0,0,5.57-5.57V80.45a5.57,5.57,0,0,0-5.57-5.57Z" fill="#093f68"></path><path d="M216.53,189a52.95,52.95,0,0,1-36.09-99.5c1-.4,2-.77,3-1.11a53,53,0,0,1,40.73,97.4A52.2,52.2,0,0,1,216.53,189Z" fill="#093f68"></path><path d="M200,192.61a53.95,53.95,0,0,1-20-104.08c1-.41,2.05-.79,3.1-1.13A53.95,53.95,0,1,1,200,192.61ZM200,86.7a51.77,51.77,0,0,0-16.17,2.6c-1,.33-2,.69-3,1.09A51.95,51.95,0,0,0,216.22,188h0a51,51,0,0,0,7.54-3.15A52,52,0,0,0,200,86.7Z" fill="#093f68"></path><path d="M176.22,131.67l-25-8.69a52.87,52.87,0,0,1,30.47-31.84l9.79,24.61A26.42,26.42,0,0,0,176.22,131.67Z" fill="#86F0D3"></path><path d="M176.22,132.67a1.26,1.26,0,0,1-.33,0l-25-8.69a1,1,0,0,1-.61-1.28,53.87,53.87,0,0,1,31-32.44,1,1,0,0,1,1.3.56l9.79,24.61a1,1,0,0,1,0,.77,1,1,0,0,1-.55.53A25.43,25.43,0,0,0,177.17,132a1,1,0,0,1-.51.57A1,1,0,0,1,176.22,132.67Zm-23.76-10.3,23.16,8a27.41,27.41,0,0,1,14.53-15.19l-9.06-22.77A51.91,51.91,0,0,0,152.46,122.37Z" fill="#093f68"></path><path d="M222.3,184.13l-12.12-23.57a26.39,26.39,0,0,0,13-15.14l25.13,8.4A52.85,52.85,0,0,1,222.3,184.13Z" fill="#86F0D3"></path><path d="M222.3,185.13a1,1,0,0,1-.89-.54L209.29,161a1,1,0,0,1-.06-.76,1.06,1.06,0,0,1,.49-.59,25.22,25.22,0,0,0,12.5-14.57,1,1,0,0,1,.51-.58,1,1,0,0,1,.76-.05l25.13,8.4a1.06,1.06,0,0,1,.58.5,1.08,1.08,0,0,1,.05.77A53.58,53.58,0,0,1,222.75,185,.91.91,0,0,1,222.3,185.13ZM211.52,161l11.21,21.8A51.57,51.57,0,0,0,247,154.45l-23.24-7.77A27.26,27.26,0,0,1,211.52,161Z" fill="#093f68"></path><circle cx="200" cy="138.66" r="21.24" fill="#86F0D3"></circle><path d="M200,160.91a22.29,22.29,0,1,1,7-1.12h0A22.57,22.57,0,0,1,200,160.91Zm0-42.49a20.24,20.24,0,1,0,6.33,39.46,20.24,20.24,0,0,0,12.91-25.54A20.27,20.27,0,0,0,200,118.42Zm6.64,40.41h0Z" fill="#093f68"></path><path d="M200,154.68a16,16,0,1,1,5-.8A16,16,0,0,1,200,154.68Zm0-30.05a14,14,0,1,0,13.3,9.65,14.06,14.06,0,0,0-13.3-9.65Z" fill="#093f68"></path><circle cx="200" cy="138.66" r="4.6" fill="#093f68"></circle><path d="M200,144.26a5.61,5.61,0,1,1,1.75-.28A5.56,5.56,0,0,1,200,144.26Zm0-9.2a3.37,3.37,0,0,0-1.12.18,3.6,3.6,0,0,0-2.3,4.54,3.61,3.61,0,0,0,4.55,2.3h0a3.61,3.61,0,0,0,2.09-1.8,3.55,3.55,0,0,0,.2-2.75A3.6,3.6,0,0,0,200,135.06Z" fill="#093f68"></path><path d="M265.71,192.61a1,1,0,0,1-1-1V153.67a1,1,0,0,1,2,0v37.94A1,1,0,0,1,265.71,192.61Z" fill="#093f68"></path><circle cx="135.37" cy="92.34" r="8.8" fill="#f56132"></circle><path d="M135.37,102.14a9.8,9.8,0,1,1,9.8-9.8A9.82,9.82,0,0,1,135.37,102.14Zm0-17.6a7.8,7.8,0,1,0,7.8,7.8A7.81,7.81,0,0,0,135.37,84.54Z" fill="#093f68"></path><path d="M155.45,153.26a1.74,1.74,0,0,1-.67-.13l-15.16-6.23a9.66,9.66,0,0,1-6-9V92.34a1.76,1.76,0,0,1,3.51,0v45.6a6.14,6.14,0,0,0,3.83,5.71l15.16,6.23a1.76,1.76,0,0,1-.66,3.38Z" fill="#fff"></path><path d="M135.36,90.59a1.75,1.75,0,0,1,1.76,1.75v45.6a6.14,6.14,0,0,0,3.83,5.71l15.16,6.23a1.76,1.76,0,0,1-.66,3.38,1.74,1.74,0,0,1-.67-.13l-15.16-6.23a9.66,9.66,0,0,1-6-9V92.34a1.75,1.75,0,0,1,1.75-1.75m0-2a3.76,3.76,0,0,0-3.75,3.75v45.6a11.64,11.64,0,0,0,7.25,10.81L154,155a3.76,3.76,0,0,0,4.9-2,3.76,3.76,0,0,0-2-4.9l-15.16-6.23a4.16,4.16,0,0,1-2.59-3.86V92.34a3.76,3.76,0,0,0-3.76-3.75Z" fill="#093f68"></path><rect x="152.06" y="149.97" width="16.05" height="7.41" rx="3.7" transform="translate(74.57 -51.1) rotate(23.5)" fill="#ffbc0e"></rect><path d="M164,160.1a4.72,4.72,0,0,1-1.87-.39l-7.92-3.45a4.7,4.7,0,0,1,.15-8.69,4.64,4.64,0,0,1,3.6.07l7.92,3.44a4.71,4.71,0,0,1-1.88,9Zm-7.92-10.86a2.85,2.85,0,0,0-1,.19,2.71,2.71,0,0,0-.09,5l7.93,3.44a2.7,2.7,0,0,0,2.15-5l-7.92-3.45A2.72,2.72,0,0,0,156.12,149.24Z" fill="#093f68"></path><rect x="258.28" y="172.64" width="16.18" height="7.5" rx="3.16" fill="#ffbc0e"></rect><path d="M271.3,181.14h-9.85a4.17,4.17,0,0,1-4.17-4.16V175.8a4.17,4.17,0,0,1,4.17-4.16h9.85a4.17,4.17,0,0,1,4.17,4.16V177A4.17,4.17,0,0,1,271.3,181.14Zm-9.85-7.5a2.17,2.17,0,0,0-2.17,2.16V177a2.17,2.17,0,0,0,2.17,2.16h9.85a2.17,2.17,0,0,0,2.17-2.16V175.8a2.17,2.17,0,0,0-2.17-2.16Z" fill="#093f68"></path><circle cx="268.63" cy="88.63" r="2.92" fill="#093f68"></circle><path d="M268.63,92.55a3.92,3.92,0,1,1,3.93-3.92A3.93,3.93,0,0,1,268.63,92.55Zm0-5.84a1.92,1.92,0,1,0,1.93,1.92A1.93,1.93,0,0,0,268.63,86.71Z" fill="#093f68"></path><circle cx="132.37" cy="185.76" r="2.92" fill="#093f68"></circle><path d="M132.37,189.69a3.93,3.93,0,1,1,3.92-3.93A3.93,3.93,0,0,1,132.37,189.69Zm0-5.85a1.93,1.93,0,1,0,1.92,1.92A1.93,1.93,0,0,0,132.37,183.84Z" fill="#093f68"></path><g id="SBwUh1"><path d="M252,115.15l.06-.21c.56-2.13,1.12-4.27,1.67-6.4l0-.05c.15-.6-.08-.91-.7-.89-.84,0-1.69.07-2.53.11l-3.62.17c-1,.05-1.9.08-2.84.15a2.28,2.28,0,0,0-.79.25,1.08,1.08,0,0,0-.55.77c-.68,2.64-1.4,5.27-2.05,7.91a3.85,3.85,0,0,1-2.74,2.93,5,5,0,0,1-4.32-.51,2.61,2.61,0,0,1-.65-4,4.63,4.63,0,0,1,2.85-1.55,5.39,5.39,0,0,1,2.46.13,3.29,3.29,0,0,1,1.24.62l.07-.24c.82-3.14,1.66-6.28,2.46-9.43a3.14,3.14,0,0,1,2.9-2.33c2.14-.08,4.27-.18,6.41-.27l3.47-.13a2.11,2.11,0,0,1,1.18.23,1.46,1.46,0,0,1,.72,1.43,3.7,3.7,0,0,1-.09.48q-1.77,6.75-3.53,13.5a3.54,3.54,0,0,1-2,2.35,5.22,5.22,0,0,1-4.22.23A3.58,3.58,0,0,1,245,119a2.47,2.47,0,0,1-.2-2.45,3.59,3.59,0,0,1,2-1.89,5.26,5.26,0,0,1,4-.08,8.82,8.82,0,0,1,1,.51Z" fill="#fff"></path><path d="M254.93,102.12a2.11,2.11,0,0,1,1,.24,1.46,1.46,0,0,1,.72,1.43,3.7,3.7,0,0,1-.09.48q-1.77,6.75-3.53,13.5a3.54,3.54,0,0,1-2,2.35,5.17,5.17,0,0,1-2.33.57,5.72,5.72,0,0,1-1.89-.34A3.58,3.58,0,0,1,245,119a2.47,2.47,0,0,1-.2-2.45,3.59,3.59,0,0,1,2-1.89,5.19,5.19,0,0,1,2.08-.44,5.45,5.45,0,0,1,1.93.36,8.82,8.82,0,0,1,1,.51l.14.09.06-.21,1.67-6.4,0-.05c.15-.58-.07-.89-.65-.89H253c-.84,0-1.69.07-2.53.11l-3.62.17c-1,.05-1.9.08-2.84.15a2.28,2.28,0,0,0-.79.25,1.08,1.08,0,0,0-.55.77c-.68,2.64-1.4,5.27-2.05,7.91a3.85,3.85,0,0,1-2.74,2.93,5.5,5.5,0,0,1-1.67.27,4.89,4.89,0,0,1-2.65-.78,2.61,2.61,0,0,1-.65-4,4.63,4.63,0,0,1,2.85-1.55,5.07,5.07,0,0,1,.94-.09,5.64,5.64,0,0,1,1.52.22,3.29,3.29,0,0,1,1.24.62l.07-.24c.82-3.14,1.66-6.28,2.46-9.43a3.14,3.14,0,0,1,2.9-2.33c2.14-.08,4.27-.18,6.41-.27l3.47-.13h.15m0-2h-.22l-3.49.13-2.11.1-4.28.17a5.12,5.12,0,0,0-4.77,3.84c-.57,2.24-1.16,4.47-1.74,6.7l-.2.76a7.49,7.49,0,0,0-1.41-.14,7,7,0,0,0-1.29.12,6.56,6.56,0,0,0-4,2.24,4.59,4.59,0,0,0,1.12,7,6.82,6.82,0,0,0,3.71,1.09,7.52,7.52,0,0,0,2.27-.36,5.83,5.83,0,0,0,4.08-4.36l0-.11a4.41,4.41,0,0,0,.75,2.74,5.55,5.55,0,0,0,2.86,2.16,7.78,7.78,0,0,0,2.56.46,7.08,7.08,0,0,0,3.22-.78,5.55,5.55,0,0,0,3-3.64c.79-3.07,1.59-6.13,2.4-9.2l1.12-4.29a5.47,5.47,0,0,0,.14-.73,3.43,3.43,0,0,0-1.7-3.41,3.88,3.88,0,0,0-2-.52ZM244.5,110l1.66-.09.79,0,1.09,0,2.53-.12.68,0h.08l-.71,2.72a7.43,7.43,0,0,0-1.69-.2,7.35,7.35,0,0,0-2.85.59,5.56,5.56,0,0,0-3.06,2.86c.3-1.14.6-2.28.89-3.4.2-.75.4-1.49.59-2.24Z" fill="#093f68"></path></g><g id="SBwUh1-2" data-name="SBwUh1"><path d="M236.39,86.79v-.34c-.08-3.47-.15-6.94-.23-10.42V76c0-1-.51-1.34-1.44-1-1.27.39-2.52.83-3.78,1.26L225.53,78c-1.41.48-2.83.93-4.23,1.45a3.49,3.49,0,0,0-1.08.71,1.71,1.71,0,0,0-.5,1.41c.1,4.28.14,8.58.3,12.86a6.08,6.08,0,0,1-2.89,5.62,7.84,7.84,0,0,1-6.76,1.08,4.1,4.1,0,0,1-2.71-5.84,7.22,7.22,0,0,1,3.64-3.58,8.51,8.51,0,0,1,3.77-.87,5.18,5.18,0,0,1,2.16.41v-.4c-.11-5.1-.2-10.21-.34-15.32a4.93,4.93,0,0,1,3.39-4.78c3.2-1,6.38-2.11,9.58-3.17l5.2-1.7a3.34,3.34,0,0,1,1.88-.14,2.25,2.25,0,0,1,1.71,1.85,4.87,4.87,0,0,1,.06.76q.24,11,.48,21.94a5.57,5.57,0,0,1-2,4.41,8.21,8.21,0,0,1-6.3,2.16,5.56,5.56,0,0,1-3.4-1.29,3.86,3.86,0,0,1-1.36-3.62,5.73,5.73,0,0,1,2.26-3.74,8.31,8.31,0,0,1,6-1.83,12.41,12.41,0,0,1,1.67.35Z" fill="#fff"></path><path d="M236.28,65.64a2.46,2.46,0,0,1,.65.08,2.25,2.25,0,0,1,1.71,1.85,4.87,4.87,0,0,1,.06.76q.24,11,.48,21.94a5.57,5.57,0,0,1-2,4.41,8.13,8.13,0,0,1-5.68,2.18c-.2,0-.41,0-.62,0a5.56,5.56,0,0,1-3.4-1.29,3.86,3.86,0,0,1-1.36-3.62,5.73,5.73,0,0,1,2.26-3.74,8.24,8.24,0,0,1,5.28-1.87,6.56,6.56,0,0,1,.76,0,12.41,12.41,0,0,1,1.67.35l.25.08v-.34c-.08-3.47-.15-6.94-.23-10.42V76c0-.75-.32-1.14-.88-1.14a1.75,1.75,0,0,0-.56.1c-1.27.39-2.52.83-3.78,1.26L225.53,78c-1.41.48-2.83.93-4.23,1.45a3.49,3.49,0,0,0-1.08.71,1.71,1.71,0,0,0-.5,1.41c.1,4.28.14,8.58.3,12.86a6.08,6.08,0,0,1-2.89,5.62,8,8,0,0,1-4.47,1.41,8.4,8.4,0,0,1-2.29-.33,4.1,4.1,0,0,1-2.71-5.84,7.22,7.22,0,0,1,3.64-3.58,8.51,8.51,0,0,1,3.77-.87h.07a5.19,5.19,0,0,1,2.09.41v-.4c-.11-5.1-.2-10.21-.34-15.32a4.93,4.93,0,0,1,3.39-4.78c3.2-1,6.38-2.11,9.58-3.17l5.2-1.7a4,4,0,0,1,1.23-.22m0-2a5.9,5.9,0,0,0-1.85.32c-1.74.56-3.47,1.13-5.21,1.71l-3.16,1c-2.14.71-4.27,1.42-6.41,2.11a6.92,6.92,0,0,0-4.77,6.75c.1,3.62.18,7.32.25,10.89,0,.78,0,1.57,0,2.36h-.12a10.6,10.6,0,0,0-4.63,1.07,9.22,9.22,0,0,0-4.59,4.56,6.1,6.1,0,0,0,4,8.58,10.32,10.32,0,0,0,2.84.41,10,10,0,0,0,5.57-1.74A8.07,8.07,0,0,0,222,94.34c-.09-2.81-.15-5.68-.2-8.46l-.09-4.38h0a1.46,1.46,0,0,1,.27-.19c1-.36,2-.7,3-1l1.17-.39,1.66-.56,3.74-1.26,1-.34,1.61-.54.15,7.16-.63,0a10.2,10.2,0,0,0-6.53,2.31,7.63,7.63,0,0,0-3,5,5.81,5.81,0,0,0,2,5.4,7.59,7.59,0,0,0,4.58,1.77l.74,0a10.1,10.1,0,0,0,7-2.7,7.53,7.53,0,0,0,2.61-5.93c-.12-5-.22-10-.33-15l-.15-7a8,8,0,0,0-.08-1,4.29,4.29,0,0,0-3.2-3.49,4.81,4.81,0,0,0-1.14-.14Z" fill="#093f68"></path></g></g></svg>